<?xml version="1.0" encoding="utf-8"?>
<!-- Generator: Adobe Illustrator 25.2.0, SVG Export Plug-In . SVG Version: 6.00 Build 0)  -->
<svg version="1.1" id="Layer_1" xmlns="http://www.w3.org/2000/svg" xmlns:xlink="http://www.w3.org/1999/xlink" x="0px" y="0px"
	 viewBox="0 0 1162.2 537.2" style="enable-background:new 0 0 1162.2 537.2;" xml:space="preserve">
<style type="text/css">
	.st0{fill:none;stroke:#222222;stroke-width:8.6937;stroke-miterlimit:10;}
	.st1{fill:#222222;}
</style>
<g>
	<path class="st0" d="M1123.4,519H34.6c-13.5,0-24.5-11-24.5-24.5V38.2c0-13.5,11-24.5,24.5-24.5h1088.9c13.5,0,24.5,11,24.5,24.5
		v456.4C1147.9,508.1,1137,519,1123.4,519z"/>
	<path class="st1" d="M361.6,342.9l-47.4-47.4V140.4c7.1-2.7,12.2-9.6,12.2-17.7c0-10.5-8.5-19-19-19c-10.5,0-19,8.5-19,19
		c0,8.2,5.3,15.3,12.6,17.9v210.9v30.3v1.1c0,5.5,2.1,10.6,6,14.5c4,4,9.2,6,14.5,6c5.2,0,10.5-2,14.5-6c8-8,8-21,0-29l-21.9-21.9
		v-32.6l38.1,38.1c17,17,17,44.6,0,61.6c-17,17-44.6,17-61.6,0c-8.2-8.2-12.7-19.1-12.7-30.8V105.6c7.2-2.7,12.3-9.6,12.3-17.7
		c0-10.5-8.5-19-19-19c-10.5,0-19,8.5-19,19c0,8.2,5.3,15.2,12.6,17.9v140.4l-53.5-53.5v-67.1c0-15.1-5.9-29.4-16.6-40.1
		c-10.7-10.7-24.9-16.6-40.1-16.6c-15.1,0-29.4,5.9-40.1,16.6c-22.1,22.1-22.1,58.1,0,80.2l47.4,47.4v155
		c-7.2,2.7-12.4,9.6-12.4,17.8c0,10.5,8.5,19,19,19c10.5,0,19-8.5,19-19c0-8.2-5.2-15.1-12.5-17.8V226.2l23,23v153.6
		c-7.3,2.7-12.4,9.6-12.4,17.8c0,10.5,8.5,19,19,19c10.5,0,19-8.5,19-19c0-8.2-5.2-15.1-12.4-17.8V262.4l53.5,53.5V383
		c0,15.1,5.9,29.4,16.6,40.1c11,11.1,25.6,16.6,40.1,16.6c14.5,0,29-5.5,40.1-16.6C383.7,401,383.7,365,361.6,342.9z M307.4,114.8
		c4.3,0,7.9,3.5,7.9,7.9c0,4.3-3.5,7.9-7.9,7.9c-4.3,0-7.9-3.5-7.9-7.9C299.6,118.4,303.1,114.8,307.4,114.8z M326.8,377.8
		c2.9,2.9,2.9,7.5,0,10.4c-2.9,2.9-7.5,2.9-10.4,0c-1.4-1.4-2.2-3.2-2.2-5.2v-1.1v-16.6L326.8,377.8z M168.6,393.7
		c-4.3,0-7.9-3.5-7.9-7.9c0-4.3,3.5-7.9,7.9-7.9c4.3,0,7.9,3.5,7.9,7.9C176.5,390.2,172.9,393.7,168.6,393.7z M204.7,428.5
		c-4.3,0-7.9-3.5-7.9-7.9c0-4.3,3.5-7.9,7.9-7.9c4.3,0,7.9,3.5,7.9,7.9C212.6,425,209.1,428.5,204.7,428.5z M264.9,297.3l-141-141
		c-8.2-8.2-12.7-19.2-12.7-30.8c0-11.6,4.5-22.6,12.7-30.8c17-17,44.6-17,61.6,0c8.2,8.2,12.8,19.2,12.8,30.8v53.9l-23-23v-30.9
		c0-5.5-2.1-10.6-6-14.5c-8-8-21-8-29,0c-8,8-8,21,0,29l124.7,124.7V297.3z M162,125.6v17.7l-12.5-12.5c-2.9-2.9-2.9-7.5,0-10.4
		c2.9-2.9,7.5-2.9,10.4,0C161.2,121.7,162,123.6,162,125.6z M271.3,80c4.3,0,7.9,3.5,7.9,7.9c0,4.3-3.5,7.9-7.9,7.9
		c-4.3,0-7.9-3.5-7.9-7.9C263.4,83.5,267,80,271.3,80z"/>
	<g>
		<g>
			<path class="st1" d="M477.8,189.6h48.2v-50h25.4v125.2h-25.4V211h-48.2v53.7h-25.5V139.6h25.5V189.6z"/>
			<path class="st1" d="M660.7,139.6l49.8,125.2h-27.7l-10.8-28.6h-52l-10.6,28.6h-26.6l49.5-125.2H660.7z M627.9,216h36.4
				l-10.1-28.7c-1.2-4.1-2.7-8.2-3.9-12.2c-1.4-4.6-2.8-9.2-4.1-14c-1.2,4.4-2.3,8.7-3.7,12.9c-1.2,3.9-2.5,7.8-3.9,11.9L627.9,216z
				"/>
			<path class="st1" d="M811.9,139.6V161h-44v29.8h42.2v20.6H768v53.4h-25.5V139.6H811.9z"/>
			<path class="st1" d="M916.5,162.4c-1.8-0.7-3.6-1.6-5.3-2.3c-2.7-0.9-10.5-3.4-19-3.2c-1.1,0-14.9-0.4-19.7,8.3
				c-0.7,1.1-1.8,3.6-1.8,6.9c0,2.1,0.5,6.7,5,10.3c2.7,2.1,6.7,3.9,13.7,6.6c5.5,2.1,11.2,4.1,16.5,6.9
				c6.6,3.4,20.9,11.5,20.9,32.3c0,17-10.3,30.5-26.4,35.6c-6.4,1.9-13.3,2.5-19.9,2.5c-13.1,0-20.4-1.6-32.8-5l2.1-22.7
				c2.3,1.2,4.4,2.5,6.7,3.4c5.8,2.5,15.4,4.3,21.8,4.3c2.3,0,14.7,0.2,20-9.2c1.8-3,1.9-6,1.9-7.3c0-3.4-1.2-5.7-1.9-6.9
				c-2.5-4.6-6.6-6.6-16-10.5c-6.4-2.5-12.8-5-18.8-8.2c-12.1-6.6-18.8-15.8-18.8-30c0-4.8,0.5-16.8,10.8-26.2
				c12.1-11,28.5-10.6,33.2-10.6c11.9,0,18.4,1.4,30,4.3L916.5,162.4z"/>
			<path class="st1" d="M1021.8,139.6l49.8,125.2H1044l-10.8-28.6h-52l-10.6,28.6H944l49.5-125.2H1021.8z M989,216h36.4l-10.1-28.7
				c-1.2-4.1-2.7-8.2-3.9-12.2c-1.4-4.6-2.8-9.2-4.1-14c-1.2,4.4-2.3,8.7-3.7,12.9c-1.2,3.9-2.5,7.8-3.9,11.9L989,216z"/>
		</g>
		<g>
			<path class="st1" d="M615.6,376.3v-9.2c1.1,1,2.2,1.7,3.3,2.2c1.1,0.5,2.1,0.7,3.2,0.7c1.5,0,2.7-0.4,3.5-1.2
				c0.9-0.8,1.3-1.9,1.3-3.2c0-1.7-1.2-3.5-3.5-5.4c-0.6-0.6-1.1-1-1.5-1.3c-2.7-2.4-4.6-4.6-5.6-6.5c-1-1.9-1.5-4.1-1.5-6.5
				c0-3.8,1.1-6.9,3.2-9.2c2.1-2.4,5-3.5,8.4-3.5c1.2,0,2.4,0.2,3.7,0.5c1.2,0.4,2.5,0.9,3.8,1.6v7.8c-1.6-0.7-2.8-1.3-3.6-1.5
				s-1.6-0.4-2.3-0.4c-1.3,0-2.3,0.4-3.1,1.2c-0.8,0.8-1.2,1.8-1.2,3.1c0,1.1,0.3,2.2,0.9,3.2c0.6,1,2,2.4,4.2,4.3
				c3,2.5,4.9,4.7,5.7,6.3s1.3,3.7,1.3,6.1c0,4-1.1,7.2-3.4,9.5c-2.3,2.3-5.4,3.5-9.3,3.5c-1.5,0-2.9-0.2-4.1-0.5
				C617.8,377.5,616.7,377,615.6,376.3z"/>
			<path class="st1" d="M678.3,356.4c0,6.7-1.4,12.1-4.2,16c-2.8,4-6.6,5.9-11.3,5.9c-4.9,0-8.7-2-11.4-6c-2.7-4-4.1-9.5-4.1-16.6
				c0-7.1,1.4-12.6,4.1-16.6c2.8-4,6.5-6,11.4-6c4.8,0,8.6,2.1,11.4,6.2C676.9,343.4,678.3,349.1,678.3,356.4z M662.8,370
				c2.3,0,3.9-1.2,5.1-3.5c1.1-2.4,1.7-5.9,1.7-10.7c0-4.8-0.6-8.3-1.7-10.7c-1.1-2.4-2.8-3.5-5.1-3.5c-2.3,0-3.9,1.2-5.1,3.5
				c-1.1,2.4-1.7,5.9-1.7,10.7c0,4.8,0.6,8.3,1.7,10.7C658.8,368.8,660.5,370,662.8,370z"/>
			<path class="st1" d="M691.7,377.8v-44.2h19.1v8.2h-10.5v9.2h9.6v8.1h-9.6v18.7H691.7z"/>
			<path class="st1" d="M728.1,377.8v-36h-6.7v-8.2h22.4v8.2h-6.7v36H728.1z"/>
			<path class="st1" d="M752.6,333.7h8.9l3.1,19.9c0.3,1.8,0.6,3.8,0.8,6c0.2,2.2,0.4,4.7,0.6,7.4l5.8-33.4h7.3l5.7,33.4
				c0-2,0.1-4,0.2-6c0.2-2,0.4-4.1,0.8-6.2l3.3-21.2h8.7l-8.9,44.2h-7.7l-4.7-24.3c-0.2-1.2-0.5-2.7-0.6-4.4
				c-0.2-1.7-0.3-3.5-0.4-5.6c-0.2,2.2-0.4,4.2-0.6,5.9s-0.4,3-0.6,4l-4.9,24.4h-7.9L752.6,333.7z"/>
			<path class="st1" d="M804.5,377.8l10.3-44.2h9.2l9.8,44.2H825l-1.5-7.7h-8.9l-1.4,7.7H804.5z M816.2,363.2h5.9
				c-0.6-3.1-1.2-6.3-1.6-9.7c-0.5-3.4-0.9-6.9-1.3-10.7c-0.4,3.3-0.9,6.7-1.4,10.1C817.3,356.3,816.8,359.7,816.2,363.2z"/>
			<path class="st1" d="M845,377.8v-44.2h9.2c5,0,8.7,1,11,3s3.4,5.1,3.4,9.5c0,3.1-0.6,5.7-1.7,7.6c-1.2,1.9-2.9,3.2-5.2,4
				l8.5,20.1h-9.3l-7.2-18.3v18.3H845z M853.5,352.8c0.1,0,0.3,0,0.5,0c0.2,0,0.4,0,0.5,0c1.9,0,3.4-0.5,4.3-1.6
				c1-1.1,1.5-2.6,1.5-4.7c0-2.1-0.4-3.7-1.3-4.6c-0.9-1-2.3-1.5-4.3-1.5c-0.3,0-0.5,0-0.7,0s-0.3,0-0.5,0L853.5,352.8z"/>
			<path class="st1" d="M881.4,377.8v-44.2H900v8.2h-10v8.9h9.1v8.1H890v10.3h10v8.6H881.4z"/>
		</g>
		<path class="st1" d="M600,365.3c-49.2-3-98.5-5.9-147.7-8.9c49.2-3.2,98.5-6.5,147.7-9.7V365.3z"/>
		<path class="st1" d="M926.7,346.7c49.2,3,98.5,5.9,147.7,8.9c-49.2,3.2-98.5,6.5-147.7,9.7V346.7z"/>
	</g>
</g>
</svg>
